<?xml version="1.0" encoding="UTF-8"?>
<svg xmlns="http://www.w3.org/2000/svg" width="222" height="222" xmlns:xlink="http://www.w3.org/1999/xlink" version="1.1" viewBox="0 0 222 222">
  <defs>
    <style>
      .cls-1 {
        fill: none;
      }

      .cls-2 {
        fill-rule: evenodd;
      }

      .cls-2, .cls-3 {
        fill: #fff;
      }

      .cls-4 {
        fill: #007680;
      }

      .cls-5 {
        clip-path: url(#clippath);
      }
    </style>
    <clipPath id="clippath">
      <rect class="cls-1" x="28.5" y="40.94" width="165" height="140.12"/>
    </clipPath>
  </defs>
  <!-- Generator: Adobe Illustrator 28.7.7, SVG Export Plug-In . SVG Version: 1.2.0 Build 194)  -->
  <g>
    <g id="Layer_1">
      <rect class="cls-4" x="0" width="222" height="222"/>
      <g class="cls-5">
        <g id="Group_9377">
          <path id="Path_9729" class="cls-3" d="M48.49,105.98h122.76v2.32H48.49v-2.32Z"/>
          <path id="Path_9730" class="cls-3" d="M52.22,67.28v-2.32h115.28v2.32H52.22Z"/>
          <path id="Path_9731" class="cls-3" d="M52.22,103.27v-1.93h115.28v1.93H52.22Z"/>
          <path id="Path_9732" class="cls-3" d="M130.35,96.17c-3.18,1.49-6.66,2.23-10.17,2.16-4.93,0-8.83-1.3-11.69-3.9-2.82-2.59-4.24-6.14-4.26-10.66,0-4.56,1.37-8.1,4.1-10.64,2.74-2.54,6.56-3.81,11.51-3.81,3.35.1,6.68.57,9.93,1.38v5.28h-2.68l-.02-.37c0-.37,0-.74-.05-1.1-.03-1.26-.81-2.39-1.98-2.87-1.68-.79-3.53-1.16-5.39-1.07-3.02-.11-5.91,1.22-7.8,3.58-1.94,2.39-2.89,5.58-2.91,9.57,0,3.99,1.13,7.11,3.41,9.39,2.26,2.24,5.41,3.36,9.49,3.36,2.95-.06,5.84-.78,8.47-2.11v1.79h.01Z"/>
          <path id="Path_9733" class="cls-3" d="M140.09,98l-6.86-23.03c-.3-1.2-.72-2.36-1.26-3.47-.75-.28-1.57-.38-2.37-.3l-.46-.03v-1.15h11.51v1.14h-.41c-.9-.05-1.79.02-2.68.18-.37.12-.6.47-.57.86.1.94.31,1.87.63,2.76l4.76,16.07,7.42-20.68h1.53l7.41,21.26,5.57-16.63c.37-1.04.68-2.1.93-3.17,0-.43-1.13-.64-3.39-.65h-.39v-1.14h8.85v1.14l-.4.04c-.88-.04-1.75.08-2.59.35-.55,1.1-1.01,2.24-1.37,3.42l-7.86,23.03h-1.45l-7.59-21.26-7.46,21.26h-1.5Z"/>
          <path id="Path_9734" class="cls-3" d="M83.16,70.02l18.34,21.44v-16.61c0-1.68-.15-2.69-.5-3.02-.3-.32-1.35-.52-3.13-.64l-.39-.03v-1.14h10.01v1.14l-.41.03c-1.76.1-2.8.3-3.13.64-.3.31-.46,1.33-.48,3.02v23.16h-1.55l-19.95-23.14v17.93c0,1.68.15,2.69.48,3.02.3.3,1.35.51,3.15.64l.39.02v1.16h-10.06v-1.16l.39-.02c1.78-.11,2.82-.32,3.15-.64.3-.31.46-1.32.48-3.02v-17.95c0-1.69,0-3.47-1.67-3.47s-1.66,1.74-1.66,3.47v11.57c.07,1.89-.1,3.79-.5,5.64-.37,1.27-1.05,2.42-2,3.34-1.87,1.94-4.78,2.91-8.74,2.93-7.95,0-11.93-3.68-11.95-11.03v-12.45c0-1.68-.15-2.69-.5-3.02-.3-.32-1.32-.52-3.11-.64l-.41-.03v-1.14h12.67v1.14l-.39.03c-1.78.1-2.82.3-3.15.64-.3.3-.46,1.31-.48,3.02v11.81c-.06,1.87.03,3.74.26,5.6.21.93.66,1.78,1.3,2.48,1.39,1.57,3.48,2.35,6.3,2.35,2.28.11,4.53-.62,6.3-2.05.81-.67,1.4-1.56,1.72-2.56.32-1.65.46-3.33.41-5v-12.63c0-1.68-.15-2.69-.5-3.02-.3-.32-1.35-.52-3.13-.64l-.39-.03v-1.14h12.8Z"/>
          <path id="Path_9735" class="cls-2" d="M109.86,49.06l-36.21,10.75h-3.93l40.14-11.91,40.14,11.91h-3.93l-36.21-10.75ZM157.66,59.82l-47.8-14.24-47.8,14.24h-9.44l57.25-16.94,57.25,16.94h-9.45ZM170.84,62.61H48.88l-3.34-2.66,64.33-19.01,64.32,19-3.35,2.66Z"/>
          <path id="Path_9736" class="cls-3" d="M164.4,97.99c-1.82-.03-3.28-1.53-3.25-3.35.03-1.82,1.53-3.28,3.35-3.25,1.8.03,3.25,1.5,3.25,3.3-.02,1.84-1.52,3.31-3.35,3.3ZM164.4,91.82c-1.58.03-2.84,1.33-2.82,2.91.03,1.58,1.33,2.84,2.91,2.82,1.56-.03,2.82-1.3,2.82-2.87-.01-1.6-1.32-2.88-2.91-2.87,0,0,0,0,0,0Z"/>
          <path id="Path_9737" class="cls-3" d="M163.23,93.04h1.54c.61,0,.99.33.99.84.03.37-.2.72-.57.81h0c.38.08.46.35.5.67-.02.31.04.62.19.89h-.49c-.12-.13-.06-.48-.12-.79s-.12-.58-.54-.58h-1.06v1.37h-.44v-3.21ZM164.56,94.51c.4,0,.75-.11.75-.57.02-.28-.19-.53-.47-.55-.04,0-.07,0-.11,0h-1.08v1.12h.91,0Z"/>
          <path id="Path_9738" class="cls-3" d="M56.78,121.14l.06-.06c.79.08,1.58.11,2.37.11.99,0,1.88-.06,2.54-.11l.06.06v.6l-.06.06c-.56-.05-1.12.04-1.63.27-.23.21-.3.4-.3,5.23v2.81c0,3.89-1.97,5.79-6.2,5.79-3.3,0-5.82-1.19-5.82-4.85v-3.75c0-4.83-.07-5.02-.3-5.23-.51-.23-1.07-.32-1.63-.27l-.07-.06v-.6l.07-.06c1.06.04,2.07.11,3.09.11s2.03-.06,3.09-.11l.07.06v.6l-.07.06c-.56-.05-1.12.04-1.63.27-.23.21-.3.4-.3,5.23v3.41c0,1.75.87,3.69,4.21,3.69,3.13,0,4.42-1.38,4.42-4.17v-2.94c0-4.83-.07-5.02-.3-5.23-.51-.23-1.07-.32-1.63-.27l-.06-.06v-.6h.01Z"/>
          <path id="Path_9739" class="cls-3" d="M70.79,124.02l.05-.05c.76.03,1.5.09,2.27.09.58,0,1.15-.05,1.73-.09l.05.05v.48l-.05.05c-.64,0-1.07.09-1.27.33-.25.31-.27,5.42-.27,6.58,0,1.96.07,3.43.1,4.37l-.1.09c-.49-.14-.99-.23-1.5-.26-1.27-1.35-5.31-6.25-7.76-9.37h-.03v4.35c0,3.86.05,4.02.24,4.18.41.18.86.26,1.31.21l.05.05v.48l-.05.05c-.66-.03-1.34-.09-2-.09s-1.34.05-2,.09l-.05-.05v-.48l.05-.05c.45.04.89-.03,1.3-.21.19-.17.24-.32.24-4.18v-1.68c0-3.86-.05-4.02-.24-4.18-.41-.18-.86-.26-1.3-.22l-.05-.05v-.48l.05-.05c.63.03,1.24.09,1.88.09.43,0,.85-.03,1.27-.09.61,1.02,6.46,8.06,7.73,9.56h.04c0-.53-.07-2.3-.07-4.58,0-3.86-.05-4.02-.24-4.18-.41-.18-.86-.26-1.31-.21l-.05-.05v-.5h0Z"/>
          <path id="Path_9740" class="cls-3" d="M75.71,124.02l.05-.05c.85.03,1.66.09,2.48.09s1.63-.05,2.48-.09l.05.05v.48l-.05.05c-.45-.04-.89.03-1.3.21-.19.17-.24.32-.24,4.18v1.68c0,3.86.05,4.02.24,4.18.41.18.86.26,1.3.21l.05.05v.48l-.05.05c-.85-.03-1.66-.09-2.48-.09s-1.63.05-2.48.09l-.05-.05v-.48l.05-.05c.45.04.89-.03,1.3-.21.19-.17.24-.32.24-4.18v-1.68c0-3.86-.05-4.02-.24-4.18-.41-.18-.86-.26-1.3-.21l-.05-.05v-.48Z"/>
          <path id="Path_9741" class="cls-3" d="M89.62,124.02l.05-.05c.68.03,1.36.09,2.03.09.56,0,1.1-.05,1.61-.09l.05.05v.48l-.05.05c-.64,0-.85.06-1.07.55-1.93,4.25-4.22,9.43-4.61,10.62h-.88c-.12-.88-4.39-10.18-4.66-10.73-.19-.38-.68-.43-1.07-.43l-.05-.05v-.48l.05-.05c.71.03,1.42.09,2.13.09.82,0,1.61-.05,2.41-.09l.05.05v.48l-.05.05c-1.07,0-1.27.09-1.27.35,0,.4,2.88,7.17,3.42,8.31,1.15-2.65,3.37-7.6,3.37-8.21,0-.31-.15-.45-1.42-.45l-.05-.05v-.48h.01Z"/>
          <path id="Path_9742" class="cls-3" d="M93.9,124.02l.05-.05c.85.03,1.66.09,2.48.09,3.13,0,5.29-.05,6.39-.09l.1.09c-.09.87-.15,1.75-.2,2.57l-.05.05h-.5l-.05-.05c.04-.51-.02-1.02-.15-1.51-.94-.22-1.91-.31-2.88-.26-.69,0-1.3.05-1.64.06-.09,1.47-.09,2.9-.09,4.33.64.01,1.34.03,1.98.03.93,0,1.51-.05,1.61-.23.15-.37.22-.76.22-1.15l.05-.05h.44l.05.05c0,.65-.04,1.32-.04,1.98,0,.45.04,1.12.04,1.7l-.05.05h-.44l-.05-.05c-.03-.41-.11-.81-.24-1.2-.09-.22-.64-.3-2.08-.3-.58,0-1.02.01-1.49.03,0,1.55,0,3.11.04,4.65,1.59.05,3.18-.02,4.76-.21.26-.54.41-1.12.44-1.72l.05-.05h.54l.05.05c-.07.7-.15,1.8-.19,2.72l-.14.09c-1.12-.03-2.32-.05-3.51-.06-1.17-.01-2.31-.01-3.3-.01-.49,0-.97.03-1.45.09l-.05-.05v-.31l.07-.09c.56-.25.68-.33.71-.43.05-.15.12-.33.12-5.78,0-3.86-.05-4.02-.24-4.18-.41-.18-.86-.26-1.3-.21l-.05-.05v-.5h0Z"/>
          <path id="Path_9743" class="cls-3" d="M109.02,129.35c.19.01.34.03.51.03,1.36.14,2.58-.85,2.71-2.21,0-.1.01-.19.01-.29,0-1.42-1.08-2.12-2.7-2.12-.49,0-.98.07-1.46.2-.01.63-.07,1.66-.07,5.67s.05,4.02.24,4.18c.39.18.81.25,1.24.21l.05.05v.48l-.05.05c-.78-.03-1.59-.09-2.41-.09s-1.63.05-2.48.09l-.05-.05v-.48l.05-.05c.45.04.89-.03,1.3-.21.19-.17.24-.32.24-4.18v-1.68c0-3.86-.05-4.02-.24-4.18-.41-.18-.86-.26-1.3-.21l-.05-.05v-.48l.05-.05c.85.03,1.66.09,2.48.09,1.02,0,2.03-.09,2.98-.09,2.44,0,4.1.47,4.1,2.5-.05,1.65-1.28,3.03-2.91,3.27l3.29,4.63c.41.57.61.67,1.12.67l.05.05v.48l-.05.05c-.39-.03-.85-.09-1.29-.09s-.9.05-1.35.09c-1.32-1.98-2.85-4.28-4.19-5.97l.17-.3Z"/>
          <path id="Path_9744" class="cls-3" d="M117.36,132.6l.05.05c-.02.37,0,.75.05,1.12.04.25.83,1.2,2.73,1.2s3.05-.97,3.05-2.55c0-3.35-6.66-.4-6.66-4.95,0-2.28,1.68-3.72,4.53-3.72,1.1,0,2.2.23,3.2.68l.05.11c-.17.74-.27,1.49-.29,2.25l-.05.05-.54-.05-.05-.05c0-1,0-1.18-.1-1.3-.66-.58-1.51-.88-2.39-.83-1.83,0-2.66,1.02-2.66,2.2,0,1.5.82,1.76,3.59,2.18,1.97.28,3.07.98,3.07,2.72s-1.44,4.12-5.15,4.12c-1.09,0-2.17-.23-3.15-.69l-.05-.1c.12-.79.18-1.58.19-2.38l.05-.05h.53Z"/>
          <path id="Path_9745" class="cls-3" d="M126.24,124.02l.05-.05c.85.03,1.66.09,2.48.09s1.63-.05,2.48-.09l.05.05v.48l-.05.05c-.45-.04-.9.03-1.31.21-.19.17-.24.32-.24,4.18v1.68c0,3.86.05,4.02.24,4.18.41.18.86.26,1.31.21l.05.05v.48l-.05.05c-.85-.03-1.66-.09-2.48-.09s-1.63.05-2.48.09l-.05-.05v-.48l.05-.05c.45.04.9-.03,1.31-.21.19-.17.24-.32.24-4.18v-1.68c0-3.86-.05-4.02-.24-4.18-.41-.18-.86-.26-1.31-.21l-.05-.05v-.48Z"/>
          <path id="Path_9746" class="cls-3" d="M134.56,135.08l.05-.05c.45.04.9-.03,1.31-.21.19-.17.24-.32.24-4.18,0-1.2-.07-3.03-.1-5.72-.69-.01-1.2-.01-1.74-.01-.88,0-1.2.03-1.32.18-.12.13-.14.26-.25,1.53l-.07.06h-.53l-.05-.05c.03-.87,0-1.75-.1-2.62l.05-.05c1.59.05,3.54.09,5.05.09s3.46-.03,5.05-.09l.05.05c-.1.87-.13,1.74-.1,2.62l-.05.05h-.53l-.07-.06c-.12-1.27-.14-1.4-.25-1.53-.12-.15-.44-.18-1.32-.18-.54,0-1.05,0-1.75.01-.03,2.68-.1,4.52-.1,5.72,0,3.86.05,4.02.24,4.18.41.18.86.26,1.31.21l.05.05v.48l-.05.05c-.85-.03-1.66-.09-2.48-.09s-1.63.05-2.48.09l-.05-.05v-.48h0Z"/>
          <path id="Path_9747" class="cls-3" d="M145.73,135.08l.05-.05c.45.04.9-.03,1.31-.21.19-.17.24-.32.24-4.18-3.27-5.53-3.85-5.78-4.68-5.78-.07,0-.12.01-.19.01l-.05-.05v-.5l.05-.05c.35,0,1.81-.23,2.15-.3.92.13,2.17,2.35,3.98,5.55,1.19-1.78,2.26-3.63,3.22-5.55.29.01.56.05.85.05s.56-.03.79-.05l.05.05v.15c-.93.9-4.42,5.85-4.42,6.65,0,3.68.05,3.83.24,4,.41.18.86.26,1.3.21l.05.05v.48l-.05.05c-.85-.03-1.66-.09-2.42-.09s-1.58.05-2.42.09l-.05-.05v-.48h0Z"/>
          <path id="Path_9748" class="cls-3" d="M161.94,135.62c-.86.07-1.71-.23-2.34-.83-.56-.71-.84-1.61-.77-2.52-.01-1.79.65-3.52,1.86-4.85,1.04-1.3,2.61-2.07,4.27-2.09.87-.07,1.74.23,2.38.82.58.71.86,1.61.79,2.52.01,1.8-.66,3.54-1.88,4.86-1.06,1.3-2.64,2.07-4.32,2.09ZM164.48,125.73c-1.04,0-1.96.7-2.75,2.09-.79,1.44-1.19,3.06-1.16,4.7-.03.67.15,1.34.5,1.91.28.48.8.77,1.35.77,1.06,0,1.99-.69,2.78-2.04.79-1.4,1.2-3,1.17-4.61.05-.73-.11-1.45-.46-2.09-.31-.48-.86-.76-1.44-.73Z"/>
          <path id="Path_9749" class="cls-3" d="M169.95,139.07h-1.57l2.61-12.88.04-.18h-1.52l.09-.45h1.51l.03-.11c.36-1.35,1.01-2.6,1.91-3.67.72-.71,1.7-1.1,2.71-1.06.35,0,.69.03,1.04.08.27.04.54.11.8.19l-.44,2.19h-.81l.19-.16.09-.59c.03-.15.05-.29.05-.44.01-.29-.14-.57-.4-.71-.32-.16-.68-.23-1.04-.21-.61-.02-1.18.28-1.5.8-.45.92-.76,1.9-.91,2.92l-.13.59-.04.18h2.93l-.09.45h-2.93l-.02.12-2.61,12.93Z"/>
          <path id="Path_9750" class="cls-3" d="M40.13,143.72l.06-.06c.95.04,1.88.11,2.84.11.72,0,1.44-.06,2.16-.11l.07.06v.6l-.07.06c-.81,0-1.33.11-1.59.42-.32.4-.34,6.77-.34,8.22,0,2.46.09,4.29.13,5.46l-.13.11c-.61-.18-1.24-.29-1.88-.33-1.59-1.68-6.63-7.81-9.69-11.7h-.05v5.43c0,4.83.07,5.02.3,5.23.51.23,1.07.32,1.63.27l.07.06v.6l-.07.06c-.83-.04-1.67-.11-2.5-.11s-1.67.07-2.5.11l-.07-.06v-.6l.07-.06c.56.05,1.12-.04,1.63-.27.23-.21.3-.4.3-5.23v-2.1c0-4.83-.07-5.02-.3-5.23-.51-.23-1.07-.32-1.63-.27l-.07-.06v-.6l.07-.06c.78.04,1.55.11,2.35.11.53,0,1.06-.03,1.59-.11.76,1.27,8.07,10.08,9.65,11.95h.04c0-.67-.09-2.87-.09-5.73,0-4.83-.07-5.02-.3-5.23-.51-.23-1.07-.32-1.63-.27l-.06-.06v-.61Z"/>
          <path id="Path_9751" class="cls-3" d="M51.37,146.32c3.42,0,6.15,1.82,6.15,5.75.01,3.49-2.8,6.33-6.29,6.34-.09,0-.19,0-.28,0-4.63,0-6.05-3.31-6.05-6.13,0-3.73,2.83-5.95,6.47-5.95ZM51.08,147.13c-2.39,0-4.19,1.78-4.19,4.55,0,3.61,1.97,5.93,4.53,5.93,2.76,0,4.1-2.27,4.1-4.96,0-4.29-2.59-5.52-4.44-5.52Z"/>
          <path id="Path_9752" class="cls-3" d="M62.74,151.93c.19.01.34.03.51.03,1.36.14,2.58-.85,2.71-2.22,0-.1.01-.19.01-.29,0-1.42-1.08-2.12-2.7-2.12-.49,0-.98.07-1.46.2-.01.63-.07,1.66-.07,5.67s.05,4.02.24,4.18c.39.18.81.25,1.24.21l.05.05v.48l-.05.05c-.78-.03-1.59-.09-2.41-.09s-1.63.05-2.48.09l-.05-.05v-.48l.05-.05c.45.04.89-.03,1.3-.21.19-.17.24-.32.24-4.18v-1.68c0-3.86-.05-4.02-.24-4.18-.41-.18-.86-.26-1.3-.21l-.05-.05v-.48l.05-.05c.85.03,1.66.09,2.48.09,1.02,0,2.03-.09,2.99-.09,2.44,0,4.1.47,4.1,2.5-.05,1.65-1.28,3.03-2.91,3.27l3.29,4.63c.41.57.61.67,1.12.67l.05.05v.48l-.05.05c-.39-.03-.85-.09-1.29-.09s-.9.05-1.36.09c-1.32-1.98-2.85-4.28-4.19-5.97l.17-.3Z"/>
          <path id="Path_9753" class="cls-3" d="M71.84,157.65l.05-.05c.45.04.89-.03,1.3-.21.19-.17.24-.32.24-4.18,0-1.2-.07-3.03-.1-5.72-.69-.01-1.2-.01-1.74-.01-.88,0-1.2.03-1.32.18-.12.13-.14.26-.25,1.53l-.07.06h-.53l-.05-.05c.03-.87,0-1.75-.1-2.62l.05-.05c1.59.05,3.54.09,5.05.09s3.46-.03,5.05-.09l.05.05c-.1.87-.13,1.74-.1,2.62l-.05.05h-.53l-.07-.06c-.12-1.27-.14-1.4-.25-1.53-.12-.15-.44-.18-1.32-.18-.54,0-1.05,0-1.74.01-.04,2.68-.1,4.52-.1,5.72,0,3.86.05,4.02.24,4.18.41.18.86.26,1.31.21l.05.05v.48l-.05.05c-.85-.03-1.66-.09-2.48-.09s-1.63.05-2.48.09l-.05-.05v-.48h0Z"/>
          <path id="Path_9754" class="cls-3" d="M79.74,157.65l.05-.05c.45.04.89-.03,1.3-.21.19-.17.24-.32.24-4.18v-1.68c0-3.86-.05-4.02-.24-4.18-.41-.18-.86-.26-1.3-.21l-.05-.05v-.48l.05-.05c.85.03,1.66.09,2.48.09s1.63-.05,2.48-.09l.05.05v.48l-.05.05c-.45-.04-.89.03-1.3.21-.19.17-.24.32-.24,4.25,1.1.01,2.13.03,3.15.03s2.05-.01,3.15-.03c0-3.93-.05-4.08-.24-4.25-.41-.18-.86-.26-1.31-.21l-.05-.05v-.48l.05-.05c.85.03,1.66.09,2.48.09s1.63-.05,2.48-.09l.05.05v.48l-.05.05c-.45-.04-.9.03-1.31.21-.19.17-.24.32-.24,4.18v1.68c0,3.86.05,4.02.24,4.18.41.18.86.26,1.31.21l.05.05v.48l-.05.05c-.85-.03-1.66-.09-2.48-.09s-1.63.05-2.48.09l-.05-.05v-.48l.05-.05c.45.04.9-.03,1.31-.21.19-.17.24-.32.24-4.25v-.68c-1.1-.01-2.13-.03-3.15-.03s-2.05.01-3.15.03v.68c0,3.93.05,4.08.24,4.25.41.18.86.26,1.3.21l.05.05v.48l-.05.05c-.85-.03-1.66-.09-2.48-.09s-1.63.05-2.48.09l-.05-.05v-.48Z"/>
          <path id="Path_9755" class="cls-3" d="M112.21,156.25c-.17.4-.32.79-.47,1.19-1.53.71-3.2,1.06-4.89,1.04-4.17,0-8.17-2.5-8.17-7.41s3.2-7.69,8.49-7.69c1.66.03,3.32.29,4.91.77l.13.14c-.27.96-.4,1.94-.4,2.94l-.07.06h-.68l-.07-.06c-.01-.52-.05-1.04-.13-1.56-1.12-.91-2.54-1.37-3.98-1.29-3.96,0-5.72,3.08-5.72,5.96,0,3.79,2.22,6.89,6.78,6.89,1.41,0,2.8-.38,4-1.13l.26.14Z"/>
          <path id="Path_9756" class="cls-3" d="M120.86,157.65l.05-.05c1.24,0,1.27-.1,1.27-.26-.27-1.03-.65-2.03-1.14-2.99h-4.48c-1.03,2.32-1.07,2.57-1.07,2.78,0,.4.44.42,1.37.47l.05.05v.48l-.05.05c-.61-.03-1.29-.09-1.95-.09s-1.34.05-1.95.09l-.05-.05v-.48l.05-.05c1.03-.03,1.08-.11,1.56-1.12,1.5-3.17,3.25-7.12,4.44-9.95h.71c3.73,8.66,4.24,9.86,4.69,10.63.19.32.34.42,1.1.43l.05.05v.48l-.05.05c-.73-.03-1.51-.09-2.29-.09s-1.56.05-2.29.09l-.05-.05v-.48ZM118.8,149.11l-1.9,4.45h3.8l-1.9-4.45Z"/>
          <path id="Path_9757" class="cls-3" d="M130.68,151.93c.19.01.34.03.51.03,1.36.14,2.58-.85,2.71-2.21,0-.1.01-.19.01-.29,0-1.42-1.08-2.12-2.69-2.12-.49,0-.98.07-1.45.2-.01.63-.07,1.66-.07,5.67s.05,4.02.24,4.18c.39.18.81.25,1.24.21l.05.05v.48l-.05.05c-.78-.03-1.59-.09-2.41-.09s-1.63.05-2.48.09l-.05-.05v-.48l.05-.05c.45.04.89-.03,1.3-.21.19-.17.24-.32.24-4.18v-1.68c0-3.86-.05-4.02-.24-4.18-.41-.18-.86-.26-1.3-.21l-.05-.05v-.48l.05-.05c.85.03,1.66.09,2.48.09,1.01,0,2.03-.09,2.98-.09,2.44,0,4.1.47,4.1,2.5-.05,1.65-1.28,3.03-2.91,3.27l3.29,4.63c.41.57.61.67,1.12.67l.05.05v.48l-.05.05c-.39-.03-.85-.09-1.29-.09s-.9.05-1.35.09c-1.32-1.98-2.85-4.28-4.19-5.97l.17-.3Z"/>
          <path id="Path_9758" class="cls-3" d="M144.61,146.32c3.42,0,6.14,1.82,6.14,5.75.01,3.49-2.8,6.33-6.29,6.34-.09,0-.19,0-.28,0-4.63,0-6.05-3.31-6.05-6.13,0-3.73,2.84-5.95,6.48-5.95ZM144.32,147.13c-2.39,0-4.19,1.78-4.19,4.55,0,3.61,1.97,5.93,4.53,5.93,2.76,0,4.1-2.27,4.1-4.96,0-4.29-2.59-5.52-4.44-5.52Z"/>
          <path id="Path_9759" class="cls-3" d="M151.97,146.59l.05-.05c.85.03,1.66.09,2.48.09s1.63-.05,2.48-.09l.05.05v.48l-.05.05c-.45-.04-.9.03-1.31.21-.19.17-.24.32-.24,4.18v1.15c0,1.55,0,3.11.04,4.65.9,0,4.51,0,4.78-.3.27-.55.44-1.15.5-1.76l.05-.05h.54l.05.05c-.07.77-.15,1.9-.25,2.93-1.19-.03-2.42-.05-3.63-.06-1.19-.01-2.32-.01-3.32-.01-.49,0-.97.03-1.45.09l-.05-.05v-.33l.05-.05c.58-.26.69-.35.73-.45.05-.15.12-.33.12-5.78,0-3.86-.05-4.02-.24-4.18-.41-.18-.86-.26-1.31-.21l-.05-.05v-.5h0Z"/>
          <path id="Path_9760" class="cls-3" d="M162.32,146.59l.05-.05c.85.03,1.66.09,2.48.09s1.63-.05,2.48-.09l.05.05v.48l-.05.05c-.45-.04-.9.03-1.31.21-.19.17-.24.32-.24,4.18v1.68c0,3.86.05,4.02.24,4.18.41.18.86.26,1.31.21l.05.05v.48l-.05.05c-.85-.03-1.66-.09-2.48-.09s-1.63.05-2.48.09l-.05-.05v-.48l.05-.05c.45.04.89-.03,1.3-.21.19-.17.24-.32.24-4.18v-1.68c0-3.86-.05-4.02-.24-4.18-.41-.18-.86-.26-1.3-.21l-.05-.05v-.48Z"/>
          <path id="Path_9761" class="cls-3" d="M177.49,146.59l.05-.05c.76.03,1.5.09,2.27.09.58,0,1.16-.05,1.73-.09l.05.05v.48l-.05.05c-.64,0-1.07.09-1.27.33-.25.31-.27,5.42-.27,6.58,0,1.96.07,3.43.1,4.37l-.1.09c-.49-.15-1-.23-1.51-.26-1.27-1.35-5.3-6.25-7.76-9.37h-.03v4.35c0,3.86.05,4.02.24,4.18.41.18.86.26,1.3.21l.05.05v.48l-.05.05c-.66-.03-1.34-.09-2-.09s-1.34.05-2,.09l-.05-.05v-.48l.05-.05c.45.04.89-.03,1.3-.21.19-.17.24-.32.24-4.18v-1.68c0-3.86-.05-4.02-.24-4.18-.41-.18-.86-.26-1.3-.21l-.05-.05v-.49l.05-.05c.63.03,1.24.09,1.88.09.43,0,.85-.03,1.27-.09.61,1.02,6.46,8.06,7.73,9.56h.03c0-.53-.07-2.3-.07-4.58,0-3.86-.05-4.02-.24-4.18-.41-.18-.86-.26-1.3-.21l-.05-.05v-.5Z"/>
          <path id="Path_9762" class="cls-3" d="M188.83,157.65l.05-.05c1.24,0,1.27-.1,1.27-.26-.27-1.03-.65-2.03-1.14-2.99h-4.47c-1.03,2.32-1.07,2.57-1.07,2.78,0,.4.44.42,1.37.47l.05.05v.48l-.05.05c-.61-.03-1.29-.09-1.95-.09s-1.34.05-1.95.09l-.05-.05v-.48l.05-.05c1.03-.03,1.08-.11,1.56-1.12,1.51-3.17,3.25-7.12,4.44-9.95h.71c3.73,8.66,4.24,9.86,4.69,10.63.19.32.34.42,1.1.43l.05.05v.48l-.05.05c-.73-.03-1.51-.09-2.28-.09s-1.56.05-2.28.09l-.05-.05v-.48ZM186.78,149.11l-1.89,4.45h3.8l-1.91-4.45Z"/>
          <path id="Path_9763" class="cls-3" d="M64.68,166.29l.07-.06c.85.06,1.69.11,2.54.11.63,0,1.27-.04,1.93-.11l.07.06v.6l-.07.06c-.99,0-1.25.11-1.57,1.1-.4,1.25-2.82,9.31-3.79,12.85h-1.04l-4.62-11.35c-1.76,3.79-4.53,9.7-5.14,11.35h-1.02l-3.18-12.66c-.27-1.08-.38-1.29-1.57-1.29l-.07-.06v-.6l.07-.06c.97.06,1.93.11,2.9.11.89,0,1.78-.04,2.67-.11l.07.06v.6l-.07.06c-1.23,0-1.59.19-1.59.67.57,3.21,1.29,6.4,2.18,9.54h.04c1.74-3.67,4.93-10.43,5.12-10.98h.68c.23.88,2.94,7.31,4.47,10.98h.04c1.97-6.85,2.54-8.93,2.54-9.51,0-.65-.59-.69-1.61-.69l-.07-.06v-.6h0Z"/>
          <path id="Path_9764" class="cls-3" d="M69.49,169.16l.05-.05c.85.03,1.66.09,2.48.09s1.63-.05,2.48-.09l.05.05v.48l-.05.05c-.45-.04-.89.03-1.3.21-.19.17-.24.32-.24,4.18v1.68c0,3.86.05,4.02.24,4.18.41.18.86.26,1.3.21l.05.05v.48l-.05.05c-.85-.04-1.66-.09-2.48-.09s-1.63.05-2.48.09l-.05-.05v-.48l.05-.05c.45.04.89-.03,1.3-.21.19-.17.24-.32.24-4.18v-1.68c0-3.86-.05-4.02-.24-4.18-.41-.18-.86-.26-1.3-.21l-.05-.05v-.48Z"/>
          <path id="Path_9765" class="cls-3" d="M75.45,169.16l.05-.05c.85.03,1.66.09,2.48.09s1.63-.05,2.48-.09l.05.05v.48l-.05.05c-.45-.04-.89.03-1.3.21-.19.17-.24.32-.24,4.18v1.15c0,1.55,0,3.11.04,4.65.9,0,4.51,0,4.78-.3.27-.55.44-1.15.5-1.76l.05-.05h.53l.05.05c-.07.77-.15,1.9-.25,2.93-1.19-.04-2.42-.05-3.62-.07-1.19-.01-2.32-.01-3.32-.01-.49,0-.97.03-1.45.08l-.05-.05v-.33l.05-.05c.58-.26.69-.35.73-.45.05-.15.12-.33.12-5.78,0-3.86-.05-4.02-.24-4.18-.41-.18-.86-.26-1.3-.21l-.05-.05v-.5h-.01Z"/>
          <path id="Path_9766" class="cls-3" d="M85.81,169.16l.05-.05c.85.03,1.25.09,2,.09.48,0,.95-.03,1.42-.09,1.58,3.4,3.75,7.57,4.46,8.97,1.54-2.99,3.03-5.95,4.51-8.97.46.03,1.07.09,1.56.09s1.19-.05,1.66-.09l.05.05v.48l-.05.05c-.45-.04-.89.03-1.3.21-.19.17-.24.32-.24,4.18v1.68c0,3.86.05,4.02.24,4.18.41.18.86.26,1.3.21l.05.05v.48l-.05.05c-.85-.04-1.66-.09-2.48-.09s-1.63.05-2.48.09l-.05-.05v-.48l.05-.05c.45.04.9-.03,1.31-.21.19-.17.24-.32.24-4.18v-4.1h-.04c-1.63,3.08-4.29,8.16-4.66,9.3h-.35c-.46-1.34-3.81-7.6-4.66-9.3h-.03v4.09c0,3.86.05,4.02.24,4.18.39.18.82.25,1.25.21l.05.05v.48l-.05.05c-.63-.04-1.27-.09-1.9-.09-.68,0-1.37.05-2.05.09l-.05-.05v-.48l.05-.05c.45.04.89-.03,1.3-.21.19-.17.24-.32.24-4.18v-1.68c0-3.86-.05-4.02-.24-4.18-.41-.18-.86-.26-1.3-.21l-.05-.05v-.48h0Z"/>
          <path id="Path_9767" class="cls-3" d="M102.43,169.16l.05-.05c.85.03,1.66.09,2.48.09s1.63-.05,2.48-.09l.05.05v.48l-.05.05c-.45-.04-.89.03-1.3.21-.19.17-.24.32-.24,4.18v1.68c0,3.86.05,4.02.24,4.18.41.18.86.26,1.3.21l.05.05v.48l-.05.05c-.85-.04-1.66-.09-2.48-.09s-1.63.05-2.48.09l-.05-.05v-.48l.05-.05c.45.04.89-.03,1.3-.21.19-.17.24-.32.24-4.18v-1.68c0-3.86-.05-4.02-.24-4.18-.41-.18-.86-.26-1.3-.21l-.05-.05v-.48Z"/>
          <path id="Path_9768" class="cls-3" d="M117.6,169.16l.05-.05c.76.03,1.51.09,2.27.09.58,0,1.15-.05,1.73-.09l.05.05v.48l-.05.05c-.64,0-1.07.09-1.27.33-.25.31-.27,5.41-.27,6.58,0,1.96.07,3.43.1,4.37l-.1.09c-.49-.15-1-.23-1.51-.26-1.27-1.35-5.3-6.25-7.76-9.37h-.04v4.35c0,3.86.05,4.02.24,4.18.41.18.86.26,1.3.21l.05.05v.48l-.05.05c-.66-.03-1.34-.08-2-.08s-1.34.05-2,.08l-.05-.05v-.48l.05-.05c.45.04.89-.03,1.3-.21.19-.17.24-.32.24-4.18v-1.68c0-3.86-.05-4.02-.24-4.18-.41-.18-.86-.26-1.3-.21l-.05-.05v-.48l.05-.05c.63.03,1.24.09,1.88.09.43,0,.85-.03,1.27-.09.61,1.02,6.46,8.06,7.73,9.56h.03c0-.53-.07-2.3-.07-4.58,0-3.86-.05-4.02-.24-4.18-.41-.18-.86-.26-1.31-.21l-.05-.05v-.5h0Z"/>
          <path id="Path_9769" class="cls-3" d="M130.92,176.05l.05-.05c.25.01,1.37.06,2.22.06.61,0,1.76-.05,2-.06l.05.05v.35l-.03.07c-.23.09-.44.22-.63.38-.07.09-.12.35-.12,1.5,0,.55.04,1.1.1,1.65l-.07.1c-1.63.54-3.33.84-5.05.88-4.27,0-6.64-2.5-6.64-6.03,0-4,3.25-6.05,6.8-6.05,1.63-.03,3.26.23,4.81.75l.05.11c-.21.76-.34,1.54-.39,2.33l-.05.05h-.44l-.05-.05c0-.47-.08-.94-.22-1.38-1.05-.68-2.27-1.03-3.52-1.02-3.24,0-4.92,2.05-4.92,4.96,0,3.31,2.13,5.45,5,5.45.91,0,1.8-.16,2.66-.45.05-.63.07-1.28.07-1.59,0-1.05-.01-1.2-.14-1.27-.48-.14-.98-.22-1.49-.23l-.05-.05v-.48h0Z"/>
          <path id="Path_9770" class="cls-3" d="M138.68,180.23l.05-.05c.44.04.89-.03,1.3-.21.19-.17.24-.32.24-4.18,0-1.2-.07-3.03-.1-5.72-.69-.01-1.2-.01-1.74-.01-.88,0-1.2.03-1.32.18-.12.13-.14.26-.25,1.53l-.07.06h-.53l-.05-.05c.03-.87,0-1.75-.1-2.62l.05-.05c1.59.05,3.54.09,5.05.09s3.46-.03,5.05-.09l.05.05c-.1.87-.13,1.74-.1,2.62l-.05.05h-.53l-.07-.06c-.12-1.27-.14-1.4-.25-1.53-.12-.15-.44-.18-1.32-.18-.54,0-1.05,0-1.75.01-.03,2.68-.1,4.52-.1,5.72,0,3.86.05,4.02.24,4.18.41.18.86.26,1.3.21l.05.05v.48l-.05.05c-.85-.04-1.66-.09-2.48-.09s-1.63.05-2.48.09l-.05-.05v-.48h0Z"/>
          <path id="Path_9771" class="cls-3" d="M153.45,168.9c3.42,0,6.14,1.82,6.14,5.75.01,3.49-2.8,6.33-6.29,6.34-.09,0-.19,0-.28,0-4.63,0-6.05-3.31-6.05-6.13,0-3.74,2.84-5.95,6.48-5.95ZM153.17,169.69c-2.39,0-4.19,1.78-4.19,4.55,0,3.61,1.97,5.93,4.53,5.93,2.76,0,4.1-2.27,4.1-4.96,0-4.28-2.59-5.51-4.44-5.51h0Z"/>
          <path id="Path_9772" class="cls-3" d="M169.02,169.16l.05-.05c.76.03,1.5.09,2.27.09.58,0,1.16-.05,1.73-.09l.05.05v.48l-.05.05c-.64,0-1.07.09-1.27.33-.25.31-.27,5.41-.27,6.58,0,1.96.07,3.43.1,4.37l-.1.09c-.49-.15-1-.23-1.51-.26-1.27-1.35-5.3-6.25-7.76-9.37h-.04v4.35c0,3.86.05,4.02.24,4.18.41.18.86.26,1.3.21l.05.05v.48l-.05.05c-.66-.03-1.34-.08-2-.08s-1.34.05-2,.08l-.05-.05v-.48l.05-.05c.45.04.9-.04,1.31-.21.19-.17.24-.32.24-4.18v-1.68c0-3.86-.05-4.02-.24-4.18-.41-.18-.86-.26-1.31-.21l-.05-.05v-.48l.05-.05c.63.03,1.24.09,1.88.09.43,0,.85-.03,1.27-.09.61,1.02,6.46,8.06,7.73,9.56h.03c0-.53-.07-2.3-.07-4.58,0-3.86-.05-4.02-.24-4.18-.41-.18-.86-.26-1.3-.21l-.05-.05v-.5Z"/>
        </g>
      </g>
    </g>
  </g>
</svg>